<svg id="Layer_1" data-name="Layer 1" xmlns="http://www.w3.org/2000/svg" xmlns:xlink="http://www.w3.org/1999/xlink" viewBox="0 0 1920 1080">
  <defs>
    <style>
      .cls-1 {
        fill: none;
      }

      .cls-2 {
        clip-path: url(#clip-path);
      }

      .cls-3 {
        fill: #2b2b2b;
      }

      .cls-4 {
        clip-path: url(#clip-path-2);
      }
    </style>
    <clipPath id="clip-path">
      <rect class="cls-1" x="-1741.5" y="55" width="1366" height="970"/>
    </clipPath>
    <clipPath id="clip-path-2">
      <rect class="cls-1" x="-0.5" width="1920" height="1080"/>
    </clipPath>
  </defs>
  <title>landing_background_front</title>
  <g class="cls-2">
    <path class="cls-3" d="M-267.82,932q-314.76,0-629.52.38c-14.65,0-19.58-3.31-18.06-18.16,1.69-16.39,1.64-33,1.41-49.51-.1-7.53,4.6-10.45,9.62-10.21,3.63.17,9.11,3,8,10-1.93,12.83,5.36,14.77,16.52,14.44,26.07-.77,52.19-.7,78.26,0,10.47.27,14.71-2,14.18-13.56-.73-15.77-1.42-31.66,1.72-47.52,1.21-6.1,4.38-9.92,8.79-9.65s8.77,4.27,8,10.59c-2,16.12,7,17.9,20.57,17.73,53.84-.7,107.69-.58,161.53,0,10.94.11,16-1.58,15.08-14.08-1.29-18.22,5.56-40.39-2.64-53.81s-32.32-13.78-49.47-19.81c-26.63-9.38-53.43-18.24-80-27.77-3.62-1.31-11.35.33-9.2-8.16,1.52-6,5.79-6.88,11.33-7.09,40.51-1.54,78.48-13,115.1-29.77,7.49-3.43,12.51-6.85,12.55-16.82,0-11.44-8.43-10.18-14.34-12.12-32.64-10.76-60.52-29.58-87.55-50.09-5.19-3.93-7.48-8.65-5.64-14.24,2-6.22,7.64-1.3,11.28-1.59,40.1-3.21,78.52-12.91,116.38-26.26,25.42-9,38.12-28.52,48.42-51,1.33-2.89.67-7.25,5-7.42,3.07-.11,3.86,3.19,5,5.78,4.89,10.77,15.67,9.21,24.45,10.5,72.67,10.7,145.91,13.13,219.19,12.46,62.13-.57,124.32-2.57,185.91-12.12,10.78-1.68,23.68.58,29-14.28,1.83-5.1,6.14-2.48,7.69,2.35,10.11,31.51,31.87,49.67,63.4,59,33.62,10,67.38,18.1,102.38,21,3.45.28,9.2-4.8,10.87,2.52,1.18,5.23-.74,9.35-5.31,12.87-27.35,21-55.74,40.08-89,50.8-5.48,1.77-13.23.66-13.3,11.19-.06,9.63,4.09,13.66,11.93,17.21,36.65,16.62,74.52,28.47,115,29.94,6.36.23,11.41,1.57,12.37,8,1.16,7.7-6.66,6.34-10.48,7.68-39.67,14-79.41,27.75-119.39,40.79-8.88,2.9-12.38,6.61-11.82,16.16a406,406,0,0,1,0,45C37,833,39.24,836.57,50.07,836.46q84.92-.91,169.86,0c11.08.13,14.81-3.56,14.43-13.74-.25-6.84.58-14.66,9.07-14.39,6.88.21,7.16,7.3,8.44,13.64,3,14.92,1.2,29.78,1.33,44.62.08,9.18,2.39,12.5,12.11,12.28,27.74-.64,55.53-.92,83.25.12,10.64.4,14.83-4.72,13.77-12.69-1.18-8.81,3.7-11.94,9.3-11.78,4.4.12,7.3,4.34,8.06,11.46,1.75,16.63-.25,33.18,1.34,49.62,1.24,12.68-2.42,16.9-16,16.71-58.83-.83-117.68-.36-176.53-.36Z"/>
  </g>
  <g class="cls-4">
    <path class="cls-3" d="M2632.05,964.9c-1.69-17.38.43-34.87-1.43-52.44-.79-7.53-3.86-12-8.5-12.11-5.92-.17-11.08,3.14-9.84,12.45,1.13,8.42-3.3,13.82-14.55,13.4-29.29-1.09-58.66-.8-88-.12-10.27.23-12.71-3.28-12.79-13-.14-15.68,1.77-31.39-1.41-47.16-1.35-6.69-1.64-14.18-8.92-14.41-9-.29-9.85,8-9.58,15.21.4,10.76-3.54,14.65-15.25,14.52q-89.74-1-179.49,0c-11.45.12-13.8-3.63-13.27-14a429.91,429.91,0,0,0,0-47.49c-.6-10.1,3.1-14,12.48-17.08,42.25-13.79,84.25-28.33,126.16-43.1,4-1.42,12.3,0,11.08-8.12-1-6.8-6.36-8.22-13.07-8.47-42.81-1.55-82.83-14.07-121.57-31.63-8.28-3.75-12.66-8-12.6-18.19.07-11.13,8.26-10,14.05-11.82,35.15-11.33,65.15-31.46,94-53.69,4.83-3.71,6.86-8.06,5.61-13.59-1.76-7.74-7.85-2.36-11.48-2.66-37-3-72.66-11.62-108.19-22.16-33.32-9.88-56.31-29.08-67-62.37-1.64-5.11-6.19-7.87-8.12-2.48-5.63,15.7-19.26,13.31-30.66,15.08-65.08,10.1-130.79,12.21-196.45,12.81-77.43.72-154.83-1.85-231.62-13.16-9.27-1.37-20.67.28-25.83-11.1-1.24-2.73-2.07-6.23-5.32-6.1-4.56.17-3.85,4.78-5.26,7.83-10.89,23.72-24.31,44.38-51.17,53.86-40,14.1-80.61,24.36-123,27.75-3.85.3-9.75-4.9-11.92,1.67-2,5.91.47,10.89,6,15.05,28.56,21.67,58,41.56,92.52,52.93,6.25,2.06,15.2.72,15.15,12.81,0,10.53-5.35,14.15-13.26,17.77-38.7,17.72-78.82,29.83-121.62,31.45-5.86.23-10.37,1.12-12,7.5-2.27,9,5.89,7.24,9.73,8.62,28.08,10.07,56.41,19.44,84.54,29.35,18.12,6.38,43.57,6.68,52.28,20.93s1.42,37.61,2.78,56.86c.94,13.21-4.37,15-15.93,14.88-56.89-.57-113.8-.7-170.69,0-14.36.19-23.82-1.7-21.73-18.73.82-6.68-3.75-10.91-8.45-11.19s-8,3.75-9.29,10.2c-3.31,16.76-2.58,33.54-1.81,50.21.56,12.22-3.92,14.61-15,14.33-27.55-.71-55.15-.78-82.69,0-11.8.35-19.51-1.7-17.46-15.25,1.12-7.42-4.68-10.4-8.5-10.58-5.31-.25-10.28,2.84-10.17,10.79.24,17.44.29,35-1.49,52.32a31.62,31.62,0,0,0,.24,10.14c-46.51-2-111.08-14.56-151.46-14.56-49.71,0-98.27,19-162.73,8.46-30.88-5.06-138.43,8.45-176.47,3.12-14.22-2-236.7-2.07-275.8-8.41-26-4.21-182.95,5.93-212.39,10.87s-105,14-170-2c-39-15-122-1-122-1l-10,160,1874.37,16,115.52.48c30.18,0,13.82-164,44-164,160.73,0,252.47-.31,413.2-.31,62.18,0,124.37-.49,186.53.38C2629.48,982.75,2633.35,978.29,2632.05,964.9Z"/>
    <path class="cls-3" d="M675.54,865.24l-82.09,34.87s-2.25,3.37-3.38,3.37-2.24-3.37-6.74-3.37S564.21,910.23,562,910.23s-3.37-3.38-6.75-4.5-28.11,0-29.24,0-6.74-3.37-6.74-3.37H490c-1.13,0-5.63,4.49-5.63,4.49H428.13c-9,0-15.74,0-15.74,3.38s15.74,3.37,15.74,3.37,1.13,4.5,0,7.87c-21.36-3.37-29.24-12.37-29.24-12.37a40,40,0,0,0,0-18c-1.12-11.25-6.74-15.75-7.87-18s1.13-7.88,3.38-12.37c3.37,0,14.62-1.13,14.62-5.63s-11.25-6.75-14.62-7.87c-1.13-2.25-4.5-10.12-10.12-10.12s-9,6.75-13.5,10.12c-5.62,0-13.5,3.37-13.5,5.62s1.13,4.5,7.88,5.63,10.12,4.49,9,7.87c-5.62,0-5.62,3.37-10.12,11.24-10.12,5.63-15.74,36-15.74,36h-6.75c-4.5,0-5.62,12.37-5.62,12.37-23.62,0-59.61-4.5-59.61-4.5s5.63,15.75,10.13,28.12,9,19.12,11.24,20.24,10.12,2.25,30.37,3.37c20.24,2.25,140.57,3.38,174.31,2.25s99-7.87,114.71-12.37,32.61-69.72,32.61-69.72V883.24l29.24-13.5v-3.37Zm-192.3,50.61C472,919.22,454,919.22,454,919.22v-6.74h23.62C485.49,912.48,483.24,915.85,483.24,915.85Zm159.69-21.37H631.68v2.25H621.56v4.5H611.44V899l33.74-13.49S647.43,894.48,642.93,894.48Z"/>
  </g>
</svg>
