<svg id="Layer_1" data-name="Layer 1" xmlns="http://www.w3.org/2000/svg" xmlns:xlink="http://www.w3.org/1999/xlink" viewBox="0 0 1366 970">
  <defs>
    <style>
      .cls-1 {
        fill: none;
      }

      .cls-2 {
        clip-path: url(#clip-path);
      }

      .cls-3 {
        fill: #a0a0a0;
      }

      .cls-4 {
        fill: #6d6d6d;
      }

      .cls-5 {
        font-size: 147.5px;
        fill: #b4ff52;
        font-family: CoolveticaRg-Regular, Coolvetica;
      }

      .cls-6 {
        font-family: CoolveticaUl-Regular, Coolvetica;
        letter-spacing: 0em;
      }

      .cls-7 {
        fill: #515151;
      }

      .cls-8 {
        fill: #2b2b2b;
      }

      .cls-9 {
        clip-path: url(#clip-path-2);
      }
    </style>
    <clipPath id="clip-path">
      <rect class="cls-1" width="1366" height="970"/>
    </clipPath>
    <clipPath id="clip-path-2">
      <rect class="cls-1" x="-1455" width="1366" height="970"/>
    </clipPath>
  </defs>
  <title>landing_background_mobile</title>
  <g class="cls-2">
    <g>
      <path class="cls-3" d="M-24,379.49s12.19,14.48,33.35.65,46.3-23.05,58.2-26.51S92.68,341,101.94,328.28s34.39-23,43.65-24.2,21.16-3.46,41-6.92,10.58,4.61,26.46,0a140,140,0,0,1,39.68-5.76c10.58,0,15.87,2.31,39.68,10.37A156.06,156.06,0,0,0,344,309.84c7.94,0,13.23-4.61,25.13-4.61s14.55,2.31,27.78,2.31,17.19-18.44,35.71-24.21,33.07-13.82,51.59-17.28,23.14-4.61,40.67,0,26.78,4.29,49.27-3,47.62-20,63.49-20h55.55c15.87,0,26.45,4.61,47.62,20.74s47.61,38,64.81,41.49,25.13,11.52,34.39,15,26.45-5.38,42.32-5.57,11.91-4.42,23.81,0,18.52-7.1,25.13-9.41,21.17,0,27.78,4.61,13.23,6.15,19.84,4.8,1.32-9.41,6.61-1.34,21.17,10.37,30.42,10.37,7.94,2.3,13.23,6.91,19.84,4.61,19.84,4.61,9.26,1.16,11.91,6.92,21.16-2.31,38.35-2.31,14.55,9.22,29.1,11.53,30.43,3.45,39.68,1.15-7.93-9.22,9.26-2.31,15.88,8.07,35.71,8.07,45-5.76,54.24-5.76,39.67,10.37,54.22,11.52S1388,331.81,1388,331.81V970H-24Z"/>
      <path class="cls-4" d="M-4.71,482.34s202.77-74.67,229.59-80.54,46.94-5.86,55.88-6.84,17.88,0,33.52,0,43.59,6.41,65.94,13,24.58,8.52,45.82,7.54,23.47,5.43,48-7.54,35.76-40.36,45.82-47.19-1.12-6.83,26.82-15.62,27.94-12.71,41.35-22.48,22.35-21.5,35.77-34.2,27.93-26.38,44.7-38.11,31.29-37.13,48.05-44,22.35,0,40.23-8.8,5.59-15.63,20.12-24.43,33.53-14.66,55.88-18.56,22.35-1,42.47-10.75,65.93-28.34,73.75-32.25,14.53-11.73,20.12,0S990.4,134.06,996,136s23.47-19.54,45.82-13.68,7.82,8.79,16.76,9.77,16.77-4.89,30.18,11.73,34.64,47.88,52.52,64.49,65.94,56.68,77.11,64.5,45.82,30.29,50.29,37.13,2.24,4.88,17.88-1,16.77,4.89,26.83,5.86,3.35-10.75,21.23-14.65,16.76,1,27.94,9.77,33.52,15.63,51.4,28.34,15.65,14.63,46.94,22.46,43.59,28.35,59.23,34.21S1576,404,1576,404V919H-24Z"/>
      <text class="cls-5" transform="translate(378.57 458.17)">jclap<tspan class="cls-6" x="271.24" y="0">design</tspan></text>
      <path class="cls-7" d="M775.05,668c-3.41-2-3.17-.77-14.57-6.14s-4.43-3.06-15.83-7.66-8.24-6.9-15.84-14.56-6.33-4.6-13.93-10-8.23-8.43-17.74-13.8-8.86-6.13-16.46-11.49-10.77-3.07-18.37-6.9-8.23-8.43-10.77-9.2-12.67-5.37-22.8-13.84-7.6-9.16-13.3-14.52-7.6-12.27-15.83-19.93-16.47-6.13-26-10.23-13.3-12-21.54-12-30.4,10.73-44.33,12-11.4-2.8-22.8-8.17-13.3-6.13-26.6-10-12-.77-19.64-1.54-17.1-6.89-26-13.79-27.87-13-46.87-10.73-14.56,5.36-27.23,12.23-20.9,6.93-33.57,8.46-7.6,6.13-13.3,15.33a83.54,83.54,0,0,1-17.73,20.7c-6.34,5.36-10.77,10.73-18.37,20.69S241.75,576,238,573.72s-13.3-13-24.7-13.8-16.47-4.6-22.17-12.27-14.56,2.3-21.53,4.6-12.67-3.06-19-4.6S136,530,127.11,525.43s-32.3-6.14-48.13-9.51-50-18.86-59.54-18.09S7.41,503.2,3,504s-22.16,5.37-24.06,9.54.63,15-4.44,10.25-20.9.91-25.33,0-9.5,8.57-16.47,10.11-15.2-9.2-28.5-17.63S-118,481-118,481V869H990S845.05,707.92,775.05,668Z"/>
      <path class="cls-8" d="M1473.68,877q-314.76,0-629.52.38c-14.65,0-19.58-3.31-18.06-18.16,1.69-16.39,1.64-33,1.41-49.51-.1-7.53,4.6-10.45,9.62-10.21,3.63.17,9.11,3,8,10-1.93,12.83,5.36,14.77,16.52,14.44,26.07-.77,52.19-.7,78.26,0,10.47.27,14.71-2,14.18-13.56-.73-15.77-1.42-31.66,1.72-47.52,1.21-6.1,4.38-9.92,8.79-9.65s8.77,4.27,8,10.59c-2,16.12,7,17.9,20.57,17.73,53.84-.7,107.69-.58,161.53,0,10.94.11,16-1.58,15.08-14.08-1.29-18.22,5.56-40.39-2.64-53.81s-32.32-13.78-49.47-19.81c-26.63-9.38-53.43-18.24-80-27.77-3.62-1.31-11.35.33-9.2-8.16,1.52-6,5.79-6.88,11.33-7.09,40.51-1.54,78.48-13,115.1-29.77,7.49-3.43,12.51-6.85,12.55-16.82,0-11.44-8.43-10.18-14.34-12.12-32.64-10.76-60.52-29.58-87.55-50.09-5.19-3.93-7.48-8.65-5.64-14.24,2-6.22,7.64-1.3,11.28-1.59,40.1-3.21,78.52-12.91,116.38-26.26,25.42-9,38.12-28.52,48.42-51,1.33-2.89.67-7.25,5-7.42,3.07-.11,3.86,3.19,5,5.78,4.89,10.77,15.67,9.21,24.45,10.5,72.67,10.7,145.91,13.13,219.19,12.46,62.13-.57,124.32-2.57,185.91-12.12,10.78-1.68,23.68.58,29-14.28,1.83-5.1,6.14-2.48,7.69,2.35,10.11,31.51,31.87,49.67,63.4,59,33.62,10,67.38,18.1,102.38,21,3.45.28,9.2-4.8,10.87,2.52,1.18,5.23-.74,9.35-5.31,12.87-27.35,21-55.74,40.08-89,50.8-5.48,1.77-13.23.66-13.3,11.19-.06,9.63,4.09,13.66,11.93,17.21,36.65,16.62,74.52,28.47,115,29.94,6.36.23,11.41,1.57,12.37,8,1.16,7.7-6.66,6.34-10.48,7.68-39.67,14-79.41,27.75-119.39,40.79-8.88,2.9-12.38,6.61-11.82,16.16a406,406,0,0,1,0,45c-.51,9.79,1.72,13.34,12.55,13.23q84.92-.91,169.86,0c11.08.13,14.81-3.56,14.43-13.74-.25-6.84.58-14.66,9.07-14.39,6.88.21,7.16,7.3,8.44,13.64,3,14.92,1.2,29.78,1.33,44.62.08,9.18,2.39,12.5,12.11,12.28,27.74-.64,55.53-.92,83.25.12,10.64.4,14.83-4.72,13.77-12.69-1.18-8.81,3.7-11.94,9.3-11.78,4.4.12,7.3,4.34,8.06,11.46,1.75,16.63-.25,33.18,1.34,49.62,1.24,12.68-2.42,16.9-16,16.71-58.83-.83-117.68-.36-176.53-.36Z"/>
      <path class="cls-8" d="M-47,869s120.34-15.48,148-11c37,6,247.54,6.06,261,8,36,5,137.78-7.74,167-3,61,10,107-8,154-8,43,0,115,15,159,14s238-9,238-9l182-10,126,9.5V1032H-47Z"/>
    </g>
    <path class="cls-8" d="M413.81,769.61l-77.69,33s-2.13,3.19-3.2,3.19-2.12-3.19-6.38-3.19-18.09,9.58-20.22,9.58-3.19-3.2-6.39-4.26-26.6,0-27.67,0-6.38-3.19-6.38-3.19H238.21c-1.07,0-5.32,4.25-5.32,4.25H179.67c-8.51,0-14.9,0-14.9,3.2s14.9,3.19,14.9,3.19,1.07,4.26,0,7.45C159.45,819.63,152,811.11,152,811.11a37.88,37.88,0,0,0,0-17c-1.06-10.64-6.38-14.9-7.45-17s1.07-7.45,3.2-11.71c3.19,0,13.83-1.07,13.83-5.32s-10.64-6.39-13.83-7.45c-1.07-2.13-4.26-9.58-9.58-9.58s-8.52,6.39-12.77,9.58c-5.32,0-12.77,3.19-12.77,5.32s1.06,4.26,7.45,5.32,9.57,4.26,8.51,7.45c-5.32,0-5.32,3.19-9.58,10.64-9.58,5.32-14.9,34.06-14.9,34.06H97.73c-4.26,0-5.32,11.71-5.32,11.71-22.35,0-56.41-4.26-56.41-4.26s5.32,14.9,9.58,26.6,8.51,18.1,10.64,19.16,9.58,2.13,28.74,3.19c19.15,2.13,133,3.2,165,2.13s93.66-7.45,108.56-11.7,30.86-66,30.86-66v-9.58L417,773.86v-3.19Zm-182,47.89c-10.64,3.19-27.67,3.19-27.67,3.19V814.3H226.5C234,814.3,231.82,817.5,231.82,817.5Zm151.12-20.22H372.3v2.13h-9.58v4.25h-9.57v-2.13l31.92-12.77S387.2,797.28,382.94,797.28Z"/>
  </g>
  <g class="cls-9">
    <g>
      <path class="cls-4" d="M-1459.71,482.34s202.77-74.67,229.59-80.54,46.94-5.86,55.88-6.84,17.88,0,33.52,0,43.59,6.41,65.94,13,24.58,8.52,45.82,7.54,23.47,5.43,48.05-7.54,35.76-40.36,45.82-47.19-1.12-6.83,26.82-15.62,27.94-12.71,41.35-22.48,22.35-21.5,35.77-34.2,27.93-26.38,44.7-38.11,31.29-37.13,48.05-44,22.35,0,40.23-8.8,5.59-15.63,20.12-24.43,33.53-14.66,55.88-18.56,22.35-1,42.47-10.75,65.93-28.34,73.75-32.25,14.53-11.73,20.12,0S-464.6,134.06-459,136s23.47-19.54,45.82-13.68,7.82,8.79,16.76,9.77,16.77-4.89,30.18,11.73,34.64,47.88,52.52,64.49,65.94,56.68,77.11,64.5,45.82,30.29,50.29,37.13,2.24,4.88,17.88-1,16.77,4.89,26.83,5.86,3.35-10.75,21.23-14.65,16.76,1,27.94,9.77,33.52,15.63,51.4,28.34,15.65,14.63,46.94,22.46S49.48,389.1,65.12,395,121,404,121,404V919H-1479Z"/>
      <path class="cls-8" d="M18.68,877q-314.76,0-629.52.38c-14.65,0-19.58-3.31-18.06-18.16,1.69-16.39,1.64-33,1.41-49.51-.1-7.53,4.6-10.45,9.62-10.21,3.63.17,9.11,3,8,10-1.93,12.83,5.36,14.77,16.52,14.44,26.07-.77,52.19-.7,78.26,0,10.47.27,14.71-2,14.18-13.56-.73-15.77-1.42-31.66,1.72-47.52,1.21-6.1,4.38-9.92,8.79-9.65s8.77,4.27,8,10.59c-2,16.12,7,17.9,20.57,17.73,53.84-.7,107.69-.58,161.53,0,10.94.11,16-1.58,15.08-14.08-1.29-18.22,5.56-40.39-2.64-53.81s-32.32-13.78-49.47-19.81c-26.63-9.38-53.43-18.24-80-27.77-3.62-1.31-11.35.33-9.2-8.16,1.52-6,5.79-6.88,11.33-7.09,40.51-1.54,78.48-13,115.1-29.77,7.49-3.43,12.51-6.85,12.55-16.82,0-11.44-8.43-10.18-14.34-12.12-32.64-10.76-60.52-29.58-87.55-50.09-5.19-3.93-7.48-8.65-5.64-14.24,2.05-6.22,7.64-1.3,11.28-1.59,40.1-3.21,78.52-12.91,116.38-26.26,25.42-9,38.12-28.52,48.42-51,1.33-2.89.67-7.25,5-7.42,3.07-.11,3.86,3.19,5,5.78,4.89,10.77,15.67,9.21,24.45,10.5,72.67,10.7,145.91,13.13,219.19,12.46,62.13-.57,124.32-2.57,185.91-12.12,10.78-1.68,23.68.58,29-14.28,1.83-5.1,6.14-2.48,7.69,2.35,10.11,31.51,31.87,49.67,63.4,59,33.62,10,67.38,18.1,102.38,21,3.45.28,9.2-4.8,10.87,2.52,1.18,5.23-.74,9.35-5.31,12.87-27.35,21-55.74,40.08-89,50.8-5.48,1.77-13.23.66-13.3,11.19-.06,9.63,4.09,13.66,11.93,17.21,36.65,16.62,74.52,28.47,115,29.94,6.36.23,11.41,1.57,12.37,8,1.16,7.7-6.66,6.34-10.48,7.68-39.67,14-79.41,27.75-119.39,40.79-8.88,2.9-12.38,6.61-11.82,16.16a406,406,0,0,1,0,45c-.51,9.79,1.72,13.34,12.55,13.23q84.92-.91,169.86,0c11.08.13,14.81-3.56,14.43-13.74-.25-6.84.58-14.66,9.07-14.39,6.88.21,7.16,7.3,8.44,13.64,3,14.92,1.2,29.78,1.33,44.62.08,9.18,2.39,12.5,12.11,12.28,27.74-.64,55.53-.92,83.25.12,10.64.4,14.83-4.72,13.77-12.69-1.18-8.81,3.7-11.94,9.3-11.78,4.4.12,7.3,4.34,8.06,11.46,1.75,16.63-.25,33.18,1.34,49.62,1.24,12.68-2.42,16.9-16,16.71C592.69,876.49,533.84,877,475,877Z"/>
    </g>
  </g>
</svg>
