<svg id="Layer_1" data-name="Layer 1" xmlns="http://www.w3.org/2000/svg" viewBox="0 0 447.25 239.9">
  <defs>
    <style>
      .cls-1 {
        fill: #2b2b2b;
      }
    </style>
  </defs>
  <title>landing_background_boat</title>
  <path class="cls-1" d="M421.55,78.68l-82.09,34.86s-2.25,3.38-3.38,3.38-2.25-3.38-6.75-3.38S310.22,123.66,308,123.66s-3.38-3.37-6.75-4.49-28.11,0-29.24,0-6.75-3.38-6.75-3.38H236c-1.12,0-5.62,4.5-5.62,4.5H174.14c-9,0-15.74,0-15.74,3.37S174.14,127,174.14,127s1.13,4.5,0,7.87c-21.37-3.37-29.24-12.37-29.24-12.37a40,40,0,0,0,0-18c-1.12-11.25-6.75-15.75-7.87-18s1.12-7.87,3.37-12.37c3.38,0,14.62-1.12,14.62-5.62s-11.24-6.75-14.62-7.87c-1.12-2.25-4.49-10.12-10.12-10.12s-9,6.74-13.49,10.12c-5.63,0-13.5,3.37-13.5,5.62s1.13,4.5,7.87,5.62,10.13,4.5,9,7.87c-5.62,0-5.62,3.38-10.12,11.25C99.92,96.67,94.3,127,94.3,127H87.55c-4.5,0-5.63,12.37-5.63,12.37-23.61,0-59.6-4.5-59.6-4.5S27.94,150.65,32.44,163s9,19.12,11.25,20.25,10.12,2.25,30.36,3.37c20.25,2.25,140.58,3.37,174.31,2.25s99-7.87,114.71-12.37,32.62-69.73,32.62-69.73V96.67l29.23-13.49V79.8Zm-192.3,50.61C218,132.66,200,132.66,200,132.66v-6.75h23.61C231.5,125.91,229.25,129.29,229.25,129.29Zm159.69-21.37H377.69v2.25H367.57v4.5H357.45v-2.25l33.74-13.5S393.44,107.92,388.94,107.92Z"/>
</svg>
