<svg id="Layer_1" data-name="Layer 1" xmlns="http://www.w3.org/2000/svg" xmlns:xlink="http://www.w3.org/1999/xlink" viewBox="0 0 1366 970">
  <defs>
    <style>
      .cls-1 {
        fill: none;
      }

      .cls-2 {
        clip-path: url(#clip-path);
      }

      .cls-3 {
        fill: #a0a0a0;
      }

      .cls-4 {
        fill: #6d6d6d;
      }

      .cls-5 {
        fill: #b4ff52;
      }

      .cls-6 {
        fill: #515151;
      }

      .cls-7 {
        fill: #2b2b2b;
      }

      .cls-8 {
        clip-path: url(#clip-path-2);
      }
    </style>
    <clipPath id="clip-path">
      <rect class="cls-1" width="1366" height="970"/>
    </clipPath>
    <clipPath id="clip-path-2">
      <rect class="cls-1" x="-1455" width="1366" height="970"/>
    </clipPath>
  </defs>
  <title>landing_background_mobile</title>
  <g class="cls-2">
    <g>
      <path class="cls-3" d="M-24,379.49s12.19,14.48,33.35.65,46.3-23.05,58.2-26.51S92.68,341,101.94,328.28s34.39-23,43.65-24.2,21.16-3.46,41-6.92,10.58,4.61,26.46,0a140,140,0,0,1,39.68-5.76c10.58,0,15.87,2.31,39.68,10.37A156.06,156.06,0,0,0,344,309.84c7.94,0,13.23-4.61,25.13-4.61s14.55,2.31,27.78,2.31,17.19-18.44,35.71-24.21,33.07-13.82,51.59-17.28,23.14-4.61,40.67,0,26.78,4.29,49.27-3,47.62-20,63.49-20h55.55c15.87,0,26.45,4.61,47.62,20.74s47.61,38,64.81,41.49,25.13,11.52,34.39,15,26.45-5.38,42.32-5.57,11.91-4.42,23.81,0,18.52-7.1,25.13-9.41,21.17,0,27.78,4.61,13.23,6.15,19.84,4.8,1.32-9.41,6.61-1.34,21.17,10.37,30.42,10.37,7.94,2.3,13.23,6.91,19.84,4.61,19.84,4.61,9.26,1.16,11.91,6.92,21.16-2.31,38.35-2.31,14.55,9.22,29.1,11.53,30.43,3.45,39.68,1.15-7.93-9.22,9.26-2.31,15.88,8.07,35.71,8.07,45-5.76,54.24-5.76,39.67,10.37,54.22,11.52S1388,331.81,1388,331.81V970H-24Z"/>
      <path class="cls-4" d="M-4.71,482.34s202.77-74.67,229.59-80.54,46.94-5.86,55.88-6.84,17.88,0,33.52,0,43.59,6.41,65.94,13,24.58,8.52,45.82,7.54,23.47,5.43,48-7.54,35.76-40.36,45.82-47.19-1.12-6.83,26.82-15.62,27.94-12.71,41.35-22.48,22.35-21.5,35.77-34.2,27.93-26.38,44.7-38.11,31.29-37.13,48.05-44,22.35,0,40.23-8.8,5.59-15.63,20.12-24.43,33.53-14.66,55.88-18.56,22.35-1,42.47-10.75,65.93-28.34,73.75-32.25,14.53-11.73,20.12,0S990.4,134.06,996,136s23.47-19.54,45.82-13.68,7.82,8.79,16.76,9.77,16.77-4.89,30.18,11.73,34.64,47.88,52.52,64.49,65.94,56.68,77.11,64.5,45.82,30.29,50.29,37.13,2.24,4.88,17.88-1,16.77,4.89,26.83,5.86,3.35-10.75,21.23-14.65,16.76,1,27.94,9.77,33.52,15.63,51.4,28.34,15.65,14.63,46.94,22.46,43.59,28.35,59.23,34.21S1576,404,1576,404V919H-24Z"/>
      <g>
        <path class="cls-5" d="M382.41,385.61h19.32V463a31.43,31.43,0,0,1-2.21,12,28.76,28.76,0,0,1-6,9.3,26.71,26.71,0,0,1-9.07,6,29.46,29.46,0,0,1-11.28,2.14q-14.89,0-22.06-8.18t-7.15-22.2h18c0,4.13.76,7.39,2.28,9.81s4.16,3.61,7.89,3.61,6.52-1.18,8-3.54,2.29-5.61,2.29-9.74Zm0-8.71V359.06h19.32V376.9Z"/>
        <path class="cls-5" d="M474.74,431.92a30.82,30.82,0,0,1-10.92,20.36,33.59,33.59,0,0,1-10.1,5.75,35.9,35.9,0,0,1-12.31,2.06,36.28,36.28,0,0,1-13.5-2.43,27.68,27.68,0,0,1-10.55-7.38A34.25,34.25,0,0,1,410.51,438a53.68,53.68,0,0,1-2.44-17,51.69,51.69,0,0,1,2.44-16.82,30.19,30.19,0,0,1,6.85-11.58,27.75,27.75,0,0,1,10.7-6.71A41.73,41.73,0,0,1,442,383.69a41,41,0,0,1,12.9,1.92,30.05,30.05,0,0,1,10.18,5.6,27,27,0,0,1,6.86,8.85,31.16,31.16,0,0,1,2.95,11.51H455.56a13.28,13.28,0,0,0-4.49-8.78,13.86,13.86,0,0,0-9.22-3.17,15.67,15.67,0,0,0-5.75,1,11.31,11.31,0,0,0-4.65,3.47,18,18,0,0,0-3.17,6.49,35.93,35.93,0,0,0-1.18,9.95q0,12,4.28,17.7t9.88,5.76a15.21,15.21,0,0,0,9.59-3.1,12.43,12.43,0,0,0,4.57-9Z"/>
        <path class="cls-5" d="M479.61,458.17V359.06h19.17v99.11Z"/>
        <path class="cls-5" d="M551.73,458.17a29.53,29.53,0,0,1-1.18-6.49,23.74,23.74,0,0,1-9,6.13,34.23,34.23,0,0,1-13,2.28q-12.52,0-18.36-5.53t-5.83-14.38q0-7.81,2.51-12.46a18.68,18.68,0,0,1,6.94-7.3,33.22,33.22,0,0,1,10.54-3.91q6.12-1.26,13.35-2.29t9.74-2.73c1.66-1.13,2.5-3,2.5-5.53a6.15,6.15,0,0,0-3.32-5.53q-3.32-2-8.92-2-6.65,0-9.51,2.95a13.8,13.8,0,0,0-3.62,7.82H506.75a32.74,32.74,0,0,1,1.84-10.33,19.78,19.78,0,0,1,5.46-8.11,25.45,25.45,0,0,1,9.81-5.24,51,51,0,0,1,14.75-1.84,47.84,47.84,0,0,1,14.52,1.92,23.37,23.37,0,0,1,9.59,5.53,21.16,21.16,0,0,1,5.24,9,42.16,42.16,0,0,1,1.62,12.16v45.87Zm-1.33-35.54a10.41,10.41,0,0,1-4.27,2.36,79.5,79.5,0,0,1-8.11,1.92q-8.26,1.62-11.36,4.13a8.74,8.74,0,0,0-3.1,7.22q0,8.12,9.29,8.12a18.39,18.39,0,0,0,6.86-1.26,17,17,0,0,0,5.46-3.39,17.22,17.22,0,0,0,3.69-5,13.8,13.8,0,0,0,1.4-6.12Z"/>
        <path class="cls-5" d="M577.25,492.54V385.61h18.43l.15,8.85q6.64-10.77,20.21-10.77a30.07,30.07,0,0,1,12.61,2.65,27.69,27.69,0,0,1,10,7.67,37.26,37.26,0,0,1,6.48,12.25,52.41,52.41,0,0,1,2.37,16.37,54,54,0,0,1-2,15.12,35.86,35.86,0,0,1-5.82,11.87,26.38,26.38,0,0,1-9.37,7.74,28.13,28.13,0,0,1-12.61,2.73q-13.42,0-21.54-11.35v43.8Zm34.21-48.82q16.53,0,16.52-22.42,0-9.74-4.57-15.85a14.11,14.11,0,0,0-11.8-6.13A14.28,14.28,0,0,0,600,405.08q-4.65,5.75-4.65,15Q595.39,443.72,611.46,443.72Z"/>
        <path class="cls-5" d="M716.18,458.17V432.66c-3.83,21.53-19.32,27.43-30.53,27.43-18.28,0-31.27-13-31.27-38.49s12.69-37.91,31.27-37.91c11.21,0,26.7,6.93,30.53,27.43V359.06h1.48v99.11Zm0-36.28c0-17.84-9.29-36.72-30.53-36.72-17.69,0-29.79,11.94-29.79,36.43s12.39,37,29.79,37S716.18,445.93,716.18,421.89Z"/>
        <path class="cls-5" d="M789.49,436.79c-4,14.9-14.6,23.3-28.61,23.3-21.83,0-32.75-13.12-32.75-39.53,0-22.41,11.65-36.87,31.71-36.87s30.68,15.78,30.68,37.76H729.61c.29,24.78,10.77,37.17,31.27,37.17,13,0,22.86-7.67,26.84-21.83ZM789.05,420c-.45-20.64-10.33-34.8-29.21-34.8-19.32,0-30.23,13.71-30.23,34.8Z"/>
        <path class="cls-5" d="M855.12,407.58c-1-14.89-7.67-22.41-26.4-22.41-19.61,0-26.55,6.34-26.55,16.81,0,11.65,6.05,14.16,26.4,17.4,14.31,1.92,29.8,1.18,29.8,19.47,0,11.65-9,21.24-28.91,21.24s-30.83-9.88-31.12-25.22h1.47c.45,15.05,11.36,23.75,29.65,23.75,18.88,0,27.43-8.85,27.43-19.77,0-16.52-11.8-15.34-28.46-18-21.68-3.25-27.73-6.64-27.73-18.88,0-11.36,7.37-18.29,28-18.29s27,9,27.73,23.89Z"/>
        <path class="cls-5" d="M868,376.91V359.06h1.47v17.85Zm0,81.26V385.61h1.47v72.56Z"/>
        <path class="cls-5" d="M943.18,431.77c-4,20.21-19.62,27-31,27-18.88,0-31.71-12.24-31.71-37.31s13.13-37.76,31.71-37.76c11.36,0,27,5.75,31,27V385.61h1.47v73.3c0,21.83-14.31,33.63-32.45,33.63-18.29,0-31.71-11.65-31.71-30.38H882c.14,18.29,13.71,28.91,30.23,28.91,17.26,0,31-11.21,31-32.16Zm0-10.47c0-23.74-13.43-36.13-31-36.13-17.7,0-30.23,12.09-30.23,36.28s12.24,35.84,30.23,35.84C933.74,457.29,943.18,438.71,943.18,421.3Z"/>
        <path class="cls-5" d="M1014.56,458.17v-46.9c0-20.94-10.18-26.1-25.37-26.1-21.23,0-31,18.88-31,36.72v36.28h-1.47V385.61h1.47v25.51c3.83-20.5,18.88-27.43,31-27.43,16.08,0,26.85,5.46,26.85,27.58v46.9Z"/>
      </g>
      <path class="cls-6" d="M775.05,668c-3.41-2-3.17-.77-14.57-6.14s-4.43-3.06-15.83-7.66-8.24-6.9-15.84-14.56-6.33-4.6-13.93-10-8.23-8.43-17.74-13.8-8.86-6.13-16.46-11.49-10.77-3.07-18.37-6.9-8.23-8.43-10.77-9.2-12.67-5.37-22.8-13.84-7.6-9.16-13.3-14.52-7.6-12.27-15.83-19.93-16.47-6.13-26-10.23-13.3-12-21.54-12-30.4,10.73-44.33,12-11.4-2.8-22.8-8.17-13.3-6.13-26.6-10-12-.77-19.64-1.54-17.1-6.89-26-13.79-27.87-13-46.87-10.73-14.56,5.36-27.23,12.23-20.9,6.93-33.57,8.46-7.6,6.13-13.3,15.33a83.54,83.54,0,0,1-17.73,20.7c-6.34,5.36-10.77,10.73-18.37,20.69S241.75,576,238,573.72s-13.3-13-24.7-13.8-16.47-4.6-22.17-12.27-14.56,2.3-21.53,4.6-12.67-3.06-19-4.6S136,530,127.11,525.43s-32.3-6.14-48.13-9.51-50-18.86-59.54-18.09S7.41,503.2,3,504s-22.16,5.37-24.06,9.54.63,15-4.44,10.25-20.9.91-25.33,0-9.5,8.57-16.47,10.11-15.2-9.2-28.5-17.63S-118,481-118,481V869H990S845.05,707.92,775.05,668Z"/>
      <path class="cls-7" d="M1473.68,877q-314.76,0-629.52.38c-14.65,0-19.58-3.31-18.06-18.16,1.69-16.39,1.64-33,1.41-49.51-.1-7.53,4.6-10.45,9.62-10.21,3.63.17,9.11,3,8,10-1.93,12.83,5.36,14.77,16.52,14.44,26.07-.77,52.19-.7,78.26,0,10.47.27,14.71-2,14.18-13.56-.73-15.77-1.42-31.66,1.72-47.52,1.21-6.1,4.38-9.92,8.79-9.65s8.77,4.27,8,10.59c-2,16.12,7,17.9,20.57,17.73,53.84-.7,107.69-.58,161.53,0,10.94.11,16-1.58,15.08-14.08-1.29-18.22,5.56-40.39-2.64-53.81s-32.32-13.78-49.47-19.81c-26.63-9.38-53.43-18.24-80-27.77-3.62-1.31-11.35.33-9.2-8.16,1.52-6,5.79-6.88,11.33-7.09,40.51-1.54,78.48-13,115.1-29.77,7.49-3.43,12.51-6.85,12.55-16.82,0-11.44-8.43-10.18-14.34-12.12-32.64-10.76-60.52-29.58-87.55-50.09-5.19-3.93-7.48-8.65-5.64-14.24,2-6.22,7.64-1.3,11.28-1.59,40.1-3.21,78.52-12.91,116.38-26.26,25.42-9,38.12-28.52,48.42-51,1.33-2.89.67-7.25,5-7.42,3.07-.11,3.86,3.19,5,5.78,4.89,10.77,15.67,9.21,24.45,10.5,72.67,10.7,145.91,13.13,219.19,12.46,62.13-.57,124.32-2.57,185.91-12.12,10.78-1.68,23.68.58,29-14.28,1.83-5.1,6.14-2.48,7.69,2.35,10.11,31.51,31.87,49.67,63.4,59,33.62,10,67.38,18.1,102.38,21,3.45.28,9.2-4.8,10.87,2.52,1.18,5.23-.74,9.35-5.31,12.87-27.35,21-55.74,40.08-89,50.8-5.48,1.77-13.23.66-13.3,11.19-.06,9.63,4.09,13.66,11.93,17.21,36.65,16.62,74.52,28.47,115,29.94,6.36.23,11.41,1.57,12.37,8,1.16,7.7-6.66,6.34-10.48,7.68-39.67,14-79.41,27.75-119.39,40.79-8.88,2.9-12.38,6.61-11.82,16.16a406,406,0,0,1,0,45c-.51,9.79,1.72,13.34,12.55,13.23q84.92-.91,169.86,0c11.08.13,14.81-3.56,14.43-13.74-.25-6.84.58-14.66,9.07-14.39,6.88.21,7.16,7.3,8.44,13.64,3,14.92,1.2,29.78,1.33,44.62.08,9.18,2.39,12.5,12.11,12.28,27.74-.64,55.53-.92,83.25.12,10.64.4,14.83-4.72,13.77-12.69-1.18-8.81,3.7-11.94,9.3-11.78,4.4.12,7.3,4.34,8.06,11.46,1.75,16.63-.25,33.18,1.34,49.62,1.24,12.68-2.42,16.9-16,16.71-58.83-.83-117.68-.36-176.53-.36Z"/>
      <path class="cls-7" d="M-47,869s120.34-15.48,148-11c37,6,247.54,6.06,261,8,36,5,137.78-7.74,167-3,61,10,107-8,154-8,43,0,115,15,159,14s238-9,238-9l182-10,126,9.5V1032H-47Z"/>
    </g>
    <path class="cls-7" d="M556.81,769.61l-77.69,33s-2.13,3.19-3.2,3.19-2.12-3.19-6.38-3.19-18.09,9.58-20.22,9.58-3.19-3.2-6.39-4.26-26.6,0-27.67,0-6.38-3.19-6.38-3.19H381.21c-1.07,0-5.32,4.25-5.32,4.25H322.67c-8.51,0-14.9,0-14.9,3.2s14.9,3.19,14.9,3.19,1.07,4.26,0,7.45C302.45,819.63,295,811.11,295,811.11a37.88,37.88,0,0,0,0-17c-1.06-10.64-6.38-14.9-7.45-17s1.07-7.45,3.2-11.71c3.19,0,13.83-1.07,13.83-5.32s-10.64-6.39-13.83-7.45c-1.07-2.13-4.26-9.58-9.58-9.58s-8.52,6.39-12.77,9.58c-5.32,0-12.77,3.19-12.77,5.32s1.06,4.26,7.45,5.32,9.57,4.26,8.51,7.45c-5.32,0-5.32,3.19-9.58,10.64-9.58,5.32-14.9,34.06-14.9,34.06h-6.38c-4.26,0-5.32,11.71-5.32,11.71-22.35,0-56.41-4.26-56.41-4.26s5.32,14.9,9.58,26.6,8.51,18.1,10.64,19.16,9.58,2.13,28.74,3.19c19.15,2.13,133,3.2,165,2.13s93.66-7.45,108.56-11.7,30.86-66,30.86-66v-9.58L560,773.86v-3.19Zm-182,47.89c-10.64,3.19-27.67,3.19-27.67,3.19V814.3H369.5C377,814.3,374.82,817.5,374.82,817.5Zm151.12-20.22H515.3v2.13h-9.58v4.25h-9.57v-2.13l31.92-12.77S530.2,797.28,525.94,797.28Z"/>
  </g>
  <g class="cls-8">
    <g>
      <path class="cls-4" d="M-1459.71,482.34s202.77-74.67,229.59-80.54,46.94-5.86,55.88-6.84,17.88,0,33.52,0,43.59,6.41,65.94,13,24.58,8.52,45.82,7.54,23.47,5.43,48.05-7.54,35.76-40.36,45.82-47.19-1.12-6.83,26.82-15.62,27.94-12.71,41.35-22.48,22.35-21.5,35.77-34.2,27.93-26.38,44.7-38.11,31.29-37.13,48.05-44,22.35,0,40.23-8.8,5.59-15.63,20.12-24.43,33.53-14.66,55.88-18.56,22.35-1,42.47-10.75,65.93-28.34,73.75-32.25,14.53-11.73,20.12,0S-464.6,134.06-459,136s23.47-19.54,45.82-13.68,7.82,8.79,16.76,9.77,16.77-4.89,30.18,11.73,34.64,47.88,52.52,64.49,65.94,56.68,77.11,64.5,45.82,30.29,50.29,37.13,2.24,4.88,17.88-1,16.77,4.89,26.83,5.86,3.35-10.75,21.23-14.65,16.76,1,27.94,9.77,33.52,15.63,51.4,28.34,15.65,14.63,46.94,22.46S49.48,389.1,65.12,395,121,404,121,404V919H-1479Z"/>
      <path class="cls-7" d="M18.68,877q-314.76,0-629.52.38c-14.65,0-19.58-3.31-18.06-18.16,1.69-16.39,1.64-33,1.41-49.51-.1-7.53,4.6-10.45,9.62-10.21,3.63.17,9.11,3,8,10-1.93,12.83,5.36,14.77,16.52,14.44,26.07-.77,52.19-.7,78.26,0,10.47.27,14.71-2,14.18-13.56-.73-15.77-1.42-31.66,1.72-47.52,1.21-6.1,4.38-9.92,8.79-9.65s8.77,4.27,8,10.59c-2,16.12,7,17.9,20.57,17.73,53.84-.7,107.69-.58,161.53,0,10.94.11,16-1.58,15.08-14.08-1.29-18.22,5.56-40.39-2.64-53.81s-32.32-13.78-49.47-19.81c-26.63-9.38-53.43-18.24-80-27.77-3.62-1.31-11.35.33-9.2-8.16,1.52-6,5.79-6.88,11.33-7.09,40.51-1.54,78.48-13,115.1-29.77,7.49-3.43,12.51-6.85,12.55-16.82,0-11.44-8.43-10.18-14.34-12.12-32.64-10.76-60.52-29.58-87.55-50.09-5.19-3.93-7.48-8.65-5.64-14.24,2.05-6.22,7.64-1.3,11.28-1.59,40.1-3.21,78.52-12.91,116.38-26.26,25.42-9,38.12-28.52,48.42-51,1.33-2.89.67-7.25,5-7.42,3.07-.11,3.86,3.19,5,5.78,4.89,10.77,15.67,9.21,24.45,10.5,72.67,10.7,145.91,13.13,219.19,12.46,62.13-.57,124.32-2.57,185.91-12.12,10.78-1.68,23.68.58,29-14.28,1.83-5.1,6.14-2.48,7.69,2.35,10.11,31.51,31.87,49.67,63.4,59,33.62,10,67.38,18.1,102.38,21,3.45.28,9.2-4.8,10.87,2.52,1.18,5.23-.74,9.35-5.31,12.87-27.35,21-55.74,40.08-89,50.8-5.48,1.77-13.23.66-13.3,11.19-.06,9.63,4.09,13.66,11.93,17.21,36.65,16.62,74.52,28.47,115,29.94,6.36.23,11.41,1.57,12.37,8,1.16,7.7-6.66,6.34-10.48,7.68-39.67,14-79.41,27.75-119.39,40.79-8.88,2.9-12.38,6.61-11.82,16.16a406,406,0,0,1,0,45c-.51,9.79,1.72,13.34,12.55,13.23q84.92-.91,169.86,0c11.08.13,14.81-3.56,14.43-13.74-.25-6.84.58-14.66,9.07-14.39,6.88.21,7.16,7.3,8.44,13.64,3,14.92,1.2,29.78,1.33,44.62.08,9.18,2.39,12.5,12.11,12.28,27.74-.64,55.53-.92,83.25.12,10.64.4,14.83-4.72,13.77-12.69-1.18-8.81,3.7-11.94,9.3-11.78,4.4.12,7.3,4.34,8.06,11.46,1.75,16.63-.25,33.18,1.34,49.62,1.24,12.68-2.42,16.9-16,16.71C592.69,876.49,533.84,877,475,877Z"/>
    </g>
  </g>
</svg>
