<svg id="Layer_1" data-name="Layer 1" xmlns="http://www.w3.org/2000/svg" viewBox="0 0 919.62 258.04">
  <defs>
    <style>
      .cls-1 {
        fill: #b4ff52;
      }
    </style>
  </defs>
  <title>jclapdesign_logo</title>
  <g>
    <path class="cls-1" d="M79.09,78.12h24.47v98.07a39.69,39.69,0,0,1-2.8,15.23,36.36,36.36,0,0,1-7.66,11.77,33.91,33.91,0,0,1-11.49,7.66,37.51,37.51,0,0,1-14.29,2.7q-18.87,0-27.93-10.36t-9.06-28.12h22.8q0,7.85,2.89,12.42t10,4.58q7.29,0,10.19-4.48t2.89-12.33Zm0-11V44.49h24.47v22.6Z"/>
    <path class="cls-1" d="M196,136.77a38.86,38.86,0,0,1-13.83,25.78,42.23,42.23,0,0,1-12.79,7.29,48.33,48.33,0,0,1-32.7-.47A34.9,34.9,0,0,1,123.37,160a43.41,43.41,0,0,1-8.69-15.5A68.21,68.21,0,0,1,111.6,123a65.59,65.59,0,0,1,3.08-21.3A38.22,38.22,0,0,1,123.37,87a35,35,0,0,1,13.54-8.5,52.71,52.71,0,0,1,17.65-2.8,52.06,52.06,0,0,1,16.35,2.43,38.15,38.15,0,0,1,12.89,7.09,34.26,34.26,0,0,1,8.69,11.21A39.38,39.38,0,0,1,196.22,111H171.75a16.75,16.75,0,0,0-5.7-11.11,17.48,17.48,0,0,0-11.67-4,20,20,0,0,0-7.29,1.31,14.25,14.25,0,0,0-5.88,4.39,23.19,23.19,0,0,0-4,8.22,45.64,45.64,0,0,0-1.49,12.61q0,15.13,5.41,22.42t12.52,7.28a19.15,19.15,0,0,0,12.14-3.92c3.36-2.62,5.29-6.41,5.79-11.4Z"/>
    <path class="cls-1" d="M202.2,170V44.49h24.29V170Z"/>
    <path class="cls-1" d="M293.55,170a37.28,37.28,0,0,1-1.49-8.22,30.09,30.09,0,0,1-11.4,7.75,43.28,43.28,0,0,1-16.44,2.9q-15.89,0-23.26-7t-7.38-18.21q0-9.9,3.18-15.79a23.76,23.76,0,0,1,8.78-9.25,42.4,42.4,0,0,1,13.36-5q7.74-1.57,16.9-2.89c6.11-.87,10.21-2,12.33-3.46s3.18-3.76,3.18-7a7.81,7.81,0,0,0-4.2-7c-2.81-1.68-6.57-2.52-11.31-2.52q-8.4,0-12.05,3.73a17.59,17.59,0,0,0-4.57,9.91H236.57a41.92,41.92,0,0,1,2.34-13.08,25.11,25.11,0,0,1,6.91-10.28A32.49,32.49,0,0,1,258.24,78a65.06,65.06,0,0,1,18.69-2.33,60.73,60.73,0,0,1,18.4,2.43,29.65,29.65,0,0,1,12.14,7,26.67,26.67,0,0,1,6.63,11.4,53.32,53.32,0,0,1,2.06,15.41V170Zm-1.68-45a13.12,13.12,0,0,1-5.42,3,97.84,97.84,0,0,1-10.27,2.43q-10.47,2.07-14.39,5.23t-3.92,9.16q0,10.27,11.77,10.27a23.43,23.43,0,0,0,8.69-1.59,21.47,21.47,0,0,0,6.91-4.29,21.81,21.81,0,0,0,4.67-6.35,17.55,17.55,0,0,0,1.77-7.76Z"/>
    <path class="cls-1" d="M325.87,213.55V78.12h23.35l.19,11.2q8.4-13.63,25.59-13.63a38.07,38.07,0,0,1,16,3.36,34.93,34.93,0,0,1,12.61,9.71,47.1,47.1,0,0,1,8.22,15.51,66.77,66.77,0,0,1,3,20.74,68.52,68.52,0,0,1-2.52,19.14,45.06,45.06,0,0,1-7.38,15A33.27,33.27,0,0,1,393,169a35.72,35.72,0,0,1-16,3.46q-17,0-27.27-14.39v55.48Zm43.34-61.83q20.93,0,20.92-28.4,0-12.33-5.79-20.08T369.4,95.49q-8.79,0-14.67,7.28t-5.88,19.06Q348.85,151.73,369.21,151.72Z"/>
    <path class="cls-1" d="M501.84,170V137.71C497,165,477.37,172.46,463.17,172.46c-23.16,0-39.6-16.44-39.6-48.76s16.07-48,39.6-48c14.2,0,33.82,8.78,38.67,34.74V44.49h1.87V170Zm0-46c0-22.6-11.76-46.52-38.67-46.52-22.41,0-37.73,15.14-37.73,46.15,0,31.2,15.69,46.89,37.73,46.89C485,170.59,501.84,154.52,501.84,124.07Z"/>
    <path class="cls-1" d="M594.69,142.94c-5.05,18.87-18.5,29.52-36.24,29.52-27.65,0-41.48-16.63-41.48-50.07,0-28.4,14.76-46.7,40.17-46.7S596,95.68,596,123.51H518.84c.38,31.39,13.64,47.08,39.61,47.08,16.44,0,28.95-9.72,34-27.65Zm-.56-21.3c-.56-26.15-13.08-44.09-37-44.09-24.47,0-38.3,17.38-38.3,44.09Z"/>
    <path class="cls-1" d="M677.82,106c-1.31-18.87-9.72-28.4-33.44-28.4-24.85,0-33.63,8-33.63,21.3,0,14.76,7.66,17.94,33.44,22.05,18.12,2.42,37.74,1.49,37.74,24.65,0,14.76-11.4,26.91-36.62,26.91s-39-12.52-39.41-32h1.86c.56,19.06,14.39,30.08,37.55,30.08,23.92,0,34.75-11.21,34.75-25,0-20.92-14.94-19.42-36-22.79-27.47-4.11-35.13-8.4-35.13-23.91,0-14.38,9.35-23.16,35.5-23.16,26,0,34.19,11.39,35.12,30.26Z"/>
    <path class="cls-1" d="M694.07,67.09V44.49h1.87v22.6Zm0,102.94V78.12h1.87V170Z"/>
    <path class="cls-1" d="M789.34,136.59c-5,25.59-24.84,34.18-39.23,34.18-23.91,0-40.16-15.5-40.16-47.26s16.63-47.82,40.16-47.82c14.39,0,34.19,7.28,39.23,34.18V78.12h1.87V171c0,27.65-18.12,42.59-41.1,42.59C727,213.55,710,198.8,710,175.07h1.87c.18,23.17,17.37,36.62,38.29,36.62,21.86,0,39.23-14.2,39.23-40.73Zm0-13.27c0-30.07-17-45.77-39.23-45.77-22.41,0-38.29,15.32-38.29,46s15.5,45.4,38.29,45.4C777.39,168.91,789.34,145.37,789.34,123.32Z"/>
    <path class="cls-1" d="M879.76,170V110.62c0-26.53-12.89-33.07-32.13-33.07-26.9,0-39.23,23.92-39.23,46.52v46h-1.87V78.12h1.87v32.31c4.85-26,23.91-34.74,39.23-34.74,20.36,0,34,6.91,34,34.93V170Z"/>
  </g>
</svg>
