<svg id="Layer_1" data-name="Layer 1" xmlns="http://www.w3.org/2000/svg" xmlns:xlink="http://www.w3.org/1999/xlink" viewBox="0 0 1366 970">
  <defs>
    <style>
      .cls-1 {
        fill: none;
      }

      .cls-2 {
        clip-path: url(#clip-path);
      }

      .cls-3 {
        fill: #2b2b2b;
      }

      .cls-4 {
        clip-path: url(#clip-path-2);
      }

      .cls-5 {
        fill: #6d6d6d;
      }
    </style>
    <clipPath id="clip-path">
      <rect class="cls-1" width="1366" height="970"/>
    </clipPath>
    <clipPath id="clip-path-2">
      <rect class="cls-1" x="-1464" width="1366" height="970"/>
    </clipPath>
  </defs>
  <title>landing_background_layer1</title>
  <g class="cls-2">
    <path class="cls-3" d="M2122.53,860.61c-1.59-16.44.41-33-1.34-49.62-.76-7.12-3.66-11.34-8.06-11.46-5.6-.16-10.48,3-9.3,11.78,1.06,8-3.13,13.09-13.77,12.69-27.72-1-55.51-.76-83.25-.12-9.72.22-12-3.1-12.11-12.28-.13-14.84,1.68-29.7-1.33-44.62-1.28-6.34-1.56-13.43-8.44-13.64-8.49-.27-9.32,7.55-9.07,14.39.38,10.18-3.35,13.87-14.43,13.74q-84.93-1-169.86,0c-10.83.11-13.06-3.44-12.55-13.23a406,406,0,0,0,0-45c-.56-9.55,2.94-13.26,11.82-16.16,40-13,79.72-26.81,119.39-40.79,3.82-1.34,11.64,0,10.48-7.68-1-6.44-6-7.78-12.37-8-40.51-1.47-78.39-13.32-115-29.94-7.84-3.55-12-7.58-11.93-17.21.07-10.53,7.82-9.42,13.3-11.19,33.26-10.72,61.65-29.77,89-50.8,4.57-3.52,6.49-7.64,5.31-12.87-1.67-7.32-7.42-2.24-10.87-2.52-35-2.87-68.76-11-102.38-21-31.53-9.35-53.29-27.51-63.4-59-1.55-4.83-5.86-7.45-7.69-2.35-5.33,14.86-18.23,12.6-29,14.28-61.59,9.55-123.78,11.55-185.91,12.12-73.28.67-146.52-1.76-219.19-12.46-8.78-1.29-19.56.27-24.45-10.5-1.17-2.59-2-5.89-5-5.78-4.31.17-3.65,4.53-5,7.42-10.3,22.44-23,42-48.42,51-37.86,13.35-76.28,23.05-116.38,26.26-3.64.29-9.23-4.63-11.28,1.59-1.84,5.59.45,10.31,5.64,14.24,27,20.51,54.91,39.33,87.55,50.09,5.91,1.94,14.38.68,14.34,12.12,0,10-5.06,13.39-12.55,16.82-36.62,16.76-74.59,28.23-115.1,29.77-5.54.21-9.81,1-11.33,7.09-2.15,8.49,5.58,6.85,9.2,8.16,26.58,9.53,53.38,18.39,80,27.77,17.15,6,41.23,6.32,49.47,19.81s1.35,35.59,2.64,53.81c.88,12.5-4.14,14.19-15.08,14.08-53.84-.54-107.69-.66-161.53,0-13.59.17-22.55-1.61-20.57-17.73.78-6.32-3.55-10.32-8-10.59s-7.58,3.55-8.79,9.65c-3.14,15.86-2.45,31.75-1.72,47.52.53,11.57-3.71,13.83-14.18,13.56-26.07-.67-52.19-.74-78.26,0-11.16.33-18.45-1.61-16.52-14.44,1.06-7-4.42-9.83-8-10-5-.24-9.72,2.68-9.62,10.21.23,16.5.28,33.12-1.41,49.51a30,30,0,0,0,.23,9.59C782.32,866.84,721.21,855,683,855c-47,0-93,18-154,8-29.22-4.79-131,8-167,3-13.46-1.89-224-2-261-8-27.66-4.48-148,11-148,11v163H1388V877h542c58.84,0,117.7-.47,176.53.36C2120.11,877.51,2123.77,873.29,2122.53,860.61Z"/>
  </g>
  <g class="cls-4">
    <g>
      <path class="cls-5" d="M-1468.71,482.34s202.77-74.67,229.59-80.54,46.94-5.86,55.88-6.84,17.88,0,33.52,0,43.59,6.41,65.94,13,24.58,8.52,45.82,7.54,23.47,5.43,48.05-7.54,35.76-40.36,45.82-47.19-1.12-6.83,26.82-15.62,27.94-12.71,41.35-22.48,22.35-21.5,35.77-34.2,27.93-26.38,44.7-38.11,31.29-37.13,48.05-44,22.35,0,40.23-8.8,5.59-15.63,20.12-24.43,33.53-14.66,55.88-18.56,22.35-1,42.47-10.75,65.93-28.34,73.75-32.25,14.53-11.73,20.12,0S-473.6,134.06-468,136s23.47-19.54,45.82-13.68,7.82,8.79,16.76,9.77,16.77-4.89,30.18,11.73,34.64,47.88,52.52,64.49,65.94,56.68,77.11,64.5,45.82,30.29,50.29,37.13,2.24,4.88,17.88-1,16.77,4.89,26.83,5.86,3.35-10.75,21.23-14.65,16.76,1,27.94,9.77,33.52,15.63,51.4,28.34,15.65,14.63,46.94,22.46S40.48,389.1,56.12,395,112,404,112,404V919H-1488Z"/>
      <path class="cls-3" d="M9.68,877q-314.76,0-629.52.38c-14.65,0-19.58-3.31-18.06-18.16,1.69-16.39,1.64-33,1.41-49.51-.1-7.53,4.6-10.45,9.62-10.21,3.63.17,9.11,3,8,10-1.93,12.83,5.36,14.77,16.52,14.44,26.07-.77,52.19-.7,78.26,0,10.47.27,14.71-2,14.18-13.56-.73-15.77-1.42-31.66,1.72-47.52,1.21-6.1,4.38-9.92,8.79-9.65s8.77,4.27,8,10.59c-2,16.12,7,17.9,20.57,17.73,53.84-.7,107.69-.58,161.53,0,10.94.11,16-1.58,15.08-14.08-1.29-18.22,5.56-40.39-2.64-53.81s-32.32-13.78-49.47-19.81c-26.63-9.38-53.43-18.24-80-27.77-3.62-1.31-11.35.33-9.2-8.16,1.52-6,5.79-6.88,11.33-7.09,40.51-1.54,78.48-13,115.1-29.77,7.49-3.43,12.51-6.85,12.55-16.82,0-11.44-8.43-10.18-14.34-12.12-32.64-10.76-60.52-29.58-87.55-50.09-5.19-3.93-7.48-8.65-5.64-14.24,2.05-6.22,7.64-1.3,11.28-1.59,40.1-3.21,78.52-12.91,116.38-26.26,25.42-9,38.12-28.52,48.42-51,1.33-2.89.67-7.25,5-7.42,3.07-.11,3.86,3.19,5,5.78,4.89,10.77,15.67,9.21,24.45,10.5,72.67,10.7,145.91,13.13,219.19,12.46,62.13-.57,124.32-2.57,185.91-12.12,10.78-1.68,23.68.58,29-14.28,1.83-5.1,6.14-2.48,7.69,2.35,10.11,31.51,31.87,49.67,63.4,59,33.62,10,67.38,18.1,102.38,21,3.45.28,9.2-4.8,10.87,2.52,1.18,5.23-.74,9.35-5.31,12.87-27.35,21-55.74,40.08-89,50.8-5.48,1.77-13.23.66-13.3,11.19-.06,9.63,4.09,13.66,11.93,17.21,36.65,16.62,74.52,28.47,115,29.94,6.36.23,11.41,1.57,12.37,8,1.16,7.7-6.66,6.34-10.48,7.68-39.67,14-79.41,27.75-119.39,40.79-8.88,2.9-12.38,6.61-11.82,16.16a406,406,0,0,1,0,45c-.51,9.79,1.72,13.34,12.55,13.23q84.92-.91,169.86,0c11.08.13,14.81-3.56,14.43-13.74-.25-6.84.58-14.66,9.07-14.39,6.88.21,7.16,7.3,8.44,13.64,3,14.92,1.2,29.78,1.33,44.62.08,9.18,2.39,12.5,12.11,12.28,27.74-.64,55.53-.92,83.25.12,10.64.4,14.83-4.72,13.77-12.69-1.18-8.81,3.7-11.94,9.3-11.78,4.4.12,7.3,4.34,8.06,11.46,1.75,16.63-.25,33.18,1.34,49.62,1.24,12.68-2.42,16.9-16,16.71C583.69,876.49,524.84,877,466,877Z"/>
    </g>
  </g>
</svg>
