<svg id="Layer_1" data-name="Layer 1" xmlns="http://www.w3.org/2000/svg" xmlns:xlink="http://www.w3.org/1999/xlink" viewBox="0 0 1920 1080">
  <defs>
    <style>
      .cls-1 {
        fill: none;
      }

      .cls-2 {
        clip-path: url(#clip-path);
      }

      .cls-3 {
        fill: #2b2b2b;
      }

      .cls-4 {
        clip-path: url(#clip-path-2);
      }

      .cls-5 {
        fill: #a0a0a0;
      }
    </style>
    <clipPath id="clip-path">
      <rect class="cls-1" x="-1741.5" y="55" width="1366" height="970"/>
    </clipPath>
    <clipPath id="clip-path-2">
      <rect class="cls-1" x="-0.5" width="1920" height="1080"/>
    </clipPath>
  </defs>
  <title>landing_background_L5</title>
  <g class="cls-2">
    <path class="cls-3" d="M-267.82,932q-314.76,0-629.52.38c-14.65,0-19.58-3.31-18.06-18.16,1.69-16.39,1.64-33,1.41-49.51-.1-7.53,4.6-10.45,9.62-10.21,3.63.17,9.11,3,8,10-1.93,12.83,5.36,14.77,16.52,14.44,26.07-.77,52.19-.7,78.26,0,10.47.27,14.71-2,14.18-13.56-.73-15.77-1.42-31.66,1.72-47.52,1.21-6.1,4.38-9.92,8.79-9.65s8.77,4.27,8,10.59c-2,16.12,7,17.9,20.57,17.73,53.84-.7,107.69-.58,161.53,0,10.94.11,16-1.58,15.08-14.08-1.29-18.22,5.56-40.39-2.64-53.81s-32.32-13.78-49.47-19.81c-26.63-9.38-53.43-18.24-80-27.77-3.62-1.31-11.35.33-9.2-8.16,1.52-6,5.79-6.88,11.33-7.09,40.51-1.54,78.48-13,115.1-29.77,7.49-3.43,12.51-6.85,12.55-16.82,0-11.44-8.43-10.18-14.34-12.12-32.64-10.76-60.52-29.58-87.55-50.09-5.19-3.93-7.48-8.65-5.64-14.24,2-6.22,7.64-1.3,11.28-1.59,40.1-3.21,78.52-12.91,116.38-26.26,25.42-9,38.12-28.52,48.42-51,1.33-2.89.67-7.25,5-7.42,3.07-.11,3.86,3.19,5,5.78,4.89,10.77,15.67,9.21,24.45,10.5,72.67,10.7,145.91,13.13,219.19,12.46,62.13-.57,124.32-2.57,185.91-12.12,10.78-1.68,23.68.58,29-14.28,1.83-5.1,6.14-2.48,7.69,2.35,10.11,31.51,31.87,49.67,63.4,59,33.62,10,67.38,18.1,102.38,21,3.45.28,9.2-4.8,10.87,2.52,1.18,5.23-.74,9.35-5.31,12.87-27.35,21-55.74,40.08-89,50.8-5.48,1.77-13.23.66-13.3,11.19-.06,9.63,4.09,13.66,11.93,17.21,36.65,16.62,74.52,28.47,115,29.94,6.36.23,11.41,1.57,12.37,8,1.16,7.7-6.66,6.34-10.48,7.68-39.67,14-79.41,27.75-119.39,40.79-8.88,2.9-12.38,6.61-11.82,16.16a406,406,0,0,1,0,45C37,833,39.24,836.57,50.07,836.46q84.92-.91,169.86,0c11.08.13,14.81-3.56,14.43-13.74-.25-6.84.58-14.66,9.07-14.39,6.88.21,7.16,7.3,8.44,13.64,3,14.92,1.2,29.78,1.33,44.62.08,9.18,2.39,12.5,12.11,12.28,27.74-.64,55.53-.92,83.25.12,10.64.4,14.83-4.72,13.77-12.69-1.18-8.81,3.7-11.94,9.3-11.78,4.4.12,7.3,4.34,8.06,11.46,1.75,16.63-.25,33.18,1.34,49.62,1.24,12.68-2.42,16.9-16,16.71-58.83-.83-117.68-.36-176.53-.36Z"/>
  </g>
  <g class="cls-4">
    <path class="cls-5" d="M-336.09,456s12.88,15.31,35.25.69,48.92-24.35,61.5-28,26.55-13.39,36.33-26.79,36.34-24.35,46.13-25.57,22.36-3.65,43.33-7.31,11.18,4.87,28,0a148,148,0,0,1,41.93-6.09c11.18,0,16.77,2.44,41.93,11a164.86,164.86,0,0,0,54.51,8.53c8.39,0,14-4.87,26.56-4.87S94.7,380,108.68,380s18.17-19.48,37.73-25.57,35-14.61,54.51-18.27,24.46-4.87,43,0,28.31,4.54,52.07-3.21,50.31-21.14,67.09-21.14h58.7c16.77,0,27.95,4.87,50.31,21.92s50.32,40.18,68.49,43.84,26.56,12.17,36.34,15.83,28-5.68,44.73-5.89,12.57-4.67,25.15,0,19.57-7.51,26.56-9.94,22.36,0,29.35,4.87,14,6.49,21,5.07,1.39-9.94,7-1.42,22.37,11,32.15,11,8.39,2.44,14,7.31,21,4.87,21,4.87,9.79,1.22,12.58,7.31,22.36-2.44,40.53-2.44,15.38,9.74,30.75,12.18,32.15,3.65,41.93,1.22-8.38-9.75,9.79-2.44,16.77,8.52,37.74,8.52,47.52-6.08,57.3-6.08,41.93,11,57.3,12.17,70.32-34,70.32-34V1080H-336.09Z"/>
  </g>
</svg>
